HIERARCHY
ROOT hip
{
	OFFSET 0.000000 0.000000 0.000000 
	CHANNELS 6 Xposition Yposition Zposition Xrotation Zrotation Yrotation
	JOINT abdomen
	{
		OFFSET 0.000000 3.402643 0.000000 
		CHANNELS 3 Xrotation Zrotation Yrotation
		JOINT chest
		{
			OFFSET 0.000000 8.438565 -0.680529 
			CHANNELS 3 Xrotation Zrotation Yrotation
			JOINT neck
			{
				OFFSET 0.000000 10.207942 -0.272212 
				CHANNELS 3 Xrotation Zrotation Yrotation
				JOINT head
				{
					OFFSET 0.000000 3.130431 0.000000 
					CHANNELS 3 Xrotation Zrotation Yrotation
					End Site
					{
						OFFSET 0.000000 3.130435 0.000000 
					}
				}
			}
			JOINT lCollar
			{
				OFFSET 3.470700 6.669187 -0.816635 
				CHANNELS 3 Yrotation Zrotation Xrotation
				JOINT lShldr
				{
					OFFSET 3.198488 0.000000 0.000000 
					CHANNELS 3 Zrotation Yrotation Xrotation
					JOINT lForeArm
					{
						OFFSET 10.139888 0.000000 0.000000 
						CHANNELS 3 Yrotation Zrotation Xrotation
						JOINT lHand
						{
							OFFSET 8.370511 0.000000 0.000000 
							CHANNELS 3 Zrotation Yrotation Xrotation
							End Site
							{
								OFFSET 4.083176 0.000000 0.000000 
							}
						}
					}
				}
			}
			JOINT rCollar
			{
				OFFSET -3.470700 6.669187 -0.816635 
				CHANNELS 3 Yrotation Zrotation Xrotation
				JOINT rShldr
				{
					OFFSET -3.198488 0.000000 0.000000 
					CHANNELS 3 Zrotation Yrotation Xrotation
					JOINT rForeArm
					{
						OFFSET -10.139888 0.000000 0.000000 
						CHANNELS 3 Yrotation Zrotation Xrotation
						JOINT rHand
						{
							OFFSET -8.370511 0.000000 0.000000 
							CHANNELS 3 Zrotation Yrotation Xrotation
							End Site
							{
								OFFSET -4.083176 0.000000 0.000000 
							}
						}
					}
				}
			}
		}
	}
	JOINT lThigh
	{
		OFFSET 5.308129 -1.633274 1.361059 
		CHANNELS 3 Xrotation Zrotation Yrotation
		JOINT lShin
		{
			OFFSET -2.041588 -20.007561 0.000000 
			CHANNELS 3 Xrotation Zrotation Yrotation
			JOINT lFoot
			{
				OFFSET 0.000000 -19.190928 -1.224953 
				CHANNELS 3 Xrotation Yrotation Zrotation
				End Site
				{
					OFFSET 0.000000 -2.449906 4.627600 
				}
			}
		}
	}
	JOINT rThigh
	{
		OFFSET -5.308129 -1.633274 1.361059 
		CHANNELS 3 Xrotation Zrotation Yrotation
		JOINT rShin
		{
			OFFSET 2.041588 -20.007561 0.000000 
			CHANNELS 3 Xrotation Zrotation Yrotation
			JOINT rFoot
			{
				OFFSET 0.000000 -19.190928 -1.224953 
				CHANNELS 3 Xrotation Yrotation Zrotation
				End Site
				{
					OFFSET 0.000000 -2.449906 4.627600 
				}
			}
		}
	}
}
MOTION
Frames: 13
Frame Time: 0.016667
39.194130 47.218174 -19.600506 2.570520 2.351150 -9.435180 -20.044901 -0.083845 1.194820 21.035601 2.519440 0.539043 15.035600 2.895740 -9.015820 12.280600 5.733670 -4.410580 2.000000 -2.000000 0.000000 98.262100 179.550003 -3.936550 41.484798 -0.317268 0.090621 0.071743 -0.072553 -163.806000 -2.000000 2.000000 0.000000 88.862999 -5.064990 -164.875000 -70.068901 0.261455 0.128535 1.765450 -0.381093 -154.056000 -13.487143 -5.851220 -2.973660 19.489031 2.303809 1.712107 -9.916804 5.928668 1.757426 -8.233100 -1.609989 13.002679 25.991091 -3.388150 -1.810189 -9.873317 -6.033586 -0.996059 
39.162453 47.266689 -19.746994 2.619010 2.136440 -9.804340 -19.966900 0.050173 1.135030 21.113800 2.421760 0.541512 14.312900 2.647950 -8.787520 12.014400 5.660620 -4.262200 2.000000 -2.000000 0.000000 98.320602 -179.863998 -3.612990 41.455502 -0.317314 0.090569 0.070587 -0.070226 -162.878998 -2.000000 2.000000 0.000000 88.599098 -4.870260 -164.621002 -70.947800 0.259478 0.129235 1.753040 -0.396731 -153.509995 -13.628483 -5.470767 -2.706937 19.410353 2.307862 1.723935 -9.810781 5.904987 1.771900 -8.056428 -1.303942 13.860095 25.419197 -3.384681 -1.785188 -10.390233 -5.703327 -0.939835 
39.150429 47.303371 -19.873260 3.048140 1.648060 -9.941310 -20.281099 0.110558 0.823273 20.927999 2.089800 0.404514 13.427800 2.369530 -8.481470 11.542400 5.600130 -4.093720 2.000000 -2.000000 0.000000 98.525597 179.960007 -3.505950 41.572701 -0.317129 0.090778 0.069771 -0.068525 -162.205002 -2.000000 2.000000 0.000000 88.608299 -4.657280 -163.809998 -70.996597 0.259368 0.129273 1.750440 -0.412347 -153.011002 -14.040139 -4.805388 -2.834172 19.182495 2.313109 1.699887 -9.657278 5.939262 1.800478 -8.145480 -0.756820 13.707424 24.821781 -3.347676 -1.754139 -10.127446 -5.364988 -0.870127 
39.135380 47.308514 -19.976725 3.049620 2.428200 -9.958270 -20.261499 -0.081852 0.894208 21.103901 2.089750 0.401158 12.863300 2.507150 -8.372060 11.346900 5.651440 -4.008940 2.000000 -2.000000 0.000000 98.486504 -179.679993 -3.192650 41.904701 -0.316601 0.091369 0.070348 -0.069734 -162.682999 -2.000000 2.000000 0.000000 88.363602 -3.623330 -163.279999 -70.449699 0.260599 0.128842 1.750930 -0.412601 -153.080002 -13.943412 -5.500626 -2.434190 18.571173 2.237262 1.680520 -9.334794 5.761546 1.761081 -8.310167 -1.589130 13.613817 24.655336 -3.404196 -1.728045 -9.979886 -5.269108 -0.826142 
39.072136 47.303875 -20.110073 3.264770 2.476450 -10.229600 -20.241800 -0.110568 0.956692 21.269899 1.904150 0.434170 13.267400 2.568220 -8.222670 11.639900 5.559940 -3.894030 2.000000 -2.000000 0.000000 98.720802 -179.477005 -2.391420 42.373501 -0.315851 0.092199 0.070743 -0.070546 -163.005997 -2.000000 2.000000 0.000000 88.500000 -2.637630 -163.003998 -69.649002 0.262396 0.128190 1.751070 -0.412673 -153.098999 -14.307762 -5.452746 -2.537798 18.553761 2.221215 1.688194 -9.225686 6.361665 1.900243 -8.416537 -1.534868 14.291050 24.044044 -3.393010 -1.692733 -10.336888 -5.162976 -0.814593 
39.008324 47.306458 -20.281950 3.615380 1.949240 -10.521100 -20.534800 0.133705 0.857196 20.947500 1.796830 0.432476 13.179900 2.358180 -8.176280 11.579300 5.444650 -3.856450 2.000000 -2.000000 0.000000 98.574303 -179.906998 -2.177530 42.881302 -0.315030 0.093090 0.071917 -0.072894 -163.942993 -2.000000 2.000000 0.000000 88.030701 -2.571210 -162.154999 -69.424400 0.262898 0.128002 1.756140 -0.404298 -153.186996 -15.013081 -4.801372 -3.255195 19.061869 2.257495 1.713000 -9.699446 6.962714 2.101665 -8.526609 -0.793513 14.737494 23.272615 -3.324525 -1.647824 -9.953038 -5.698085 -0.892336 
38.916767 47.279552 -20.450230 3.341920 2.018050 -10.760800 -20.398100 0.161018 0.846596 20.957300 1.904250 0.423786 12.834000 2.101280 -8.101390 11.478500 5.252420 -3.783540 2.000000 -2.000000 0.000000 98.359497 -179.595001 -1.971760 42.490700 -0.315662 0.092405 0.072518 -0.074061 -164.412003 -2.000000 2.000000 0.000000 87.834900 -2.132970 -161.615997 -69.238800 0.263312 0.127846 1.744320 -0.420179 -152.787003 -14.916658 -4.829465 -3.371245 19.217295 2.276964 1.722803 -9.719947 7.285165 2.182678 -8.356954 -0.794929 15.043139 23.161074 -3.344138 -1.642491 -10.506652 -5.726702 -0.914510 
38.828362 47.281609 -20.654799 2.999720 1.911440 -11.003100 -20.496700 0.240027 0.640105 20.595699 2.011720 0.343511 12.865900 1.864940 -7.795130 11.437900 5.156130 -3.623900 2.000000 -2.000000 0.000000 97.880997 -179.865997 -2.939160 42.715302 -0.315299 0.092799 0.071362 -0.071796 -163.503998 -2.000000 2.000000 0.000000 87.501999 -2.116090 -160.444000 -69.082603 0.263660 0.127713 1.747400 -0.427700 -152.494003 -14.722864 -4.646745 -3.454933 19.282978 2.297453 1.705236 -9.774302 7.611763 2.246313 -8.271855 -0.572085 15.807898 23.129515 -3.355605 -1.635332 -11.322526 -5.354102 -0.883248 
38.729389 47.218933 -20.858582 2.726630 2.204540 -11.379100 -20.603800 0.388581 0.730338 20.371000 2.177720 0.403106 12.213400 2.562220 -7.637410 11.149700 5.586460 -3.577630 2.000000 -2.000000 0.000000 97.295097 179.714005 -2.930330 42.920300 -0.314967 0.093158 0.071570 -0.072211 -163.669998 -2.000000 2.000000 0.000000 87.101196 -2.068400 -159.936996 -68.799400 0.264291 0.127470 1.746960 -0.427470 -152.434998 -14.615970 -4.770776 -2.847394 19.152519 2.317337 1.701080 -9.495220 7.597958 2.229766 -8.252544 -0.741949 15.998825 23.325609 -3.367279 -1.645412 -11.351191 -5.152904 -0.795375 
38.611881 47.217533 -21.040567 2.151270 2.937390 -11.725300 -20.603901 0.313163 0.696084 20.224300 2.607380 0.375520 12.344200 2.543840 -7.403760 11.179400 5.605420 -3.464940 2.000000 -2.000000 0.000000 96.914200 179.410995 -2.901700 42.471100 -0.315694 0.092371 0.072733 -0.074473 -164.578003 -2.000000 2.000000 0.000000 87.100502 -1.620880 -159.173996 -68.047401 0.265960 0.126810 1.747690 -0.427854 -152.533005 -14.094706 -5.396801 -2.499402 18.632452 2.291754 1.657974 -9.325926 7.764986 2.284893 -8.255012 -1.330368 16.784203 23.872438 -3.413839 -1.668795 -11.777275 -5.046971 -0.708528 
38.471233 47.205814 -21.259966 1.887610 3.142830 -11.927300 -20.341299 0.261886 0.392461 20.517500 2.812500 0.222693 12.767600 2.199500 -6.968720 11.432100 5.437100 -3.217310 2.000000 -2.000000 0.000000 96.777603 179.520004 -3.379980 42.646900 -0.315410 0.092680 0.072041 -0.073137 -164.041000 -2.000000 2.000000 0.000000 87.109299 -0.715004 -158.126999 -67.568901 0.267017 0.126379 1.750930 -0.412601 -153.080002 -13.738259 -5.417041 -2.124291 18.002663 2.278212 1.619292 -8.682239 7.980653 2.283573 -8.590230 -1.346875 17.035938 24.199163 -3.412912 -1.694694 -12.202284 -4.570795 -0.618735 
38.397427 47.173508 -21.447794 1.468150 3.846400 -12.049500 -20.292200 -0.169755 0.604151 20.517500 2.460940 0.242463 12.766800 1.959560 -6.897730 11.340500 5.205900 -3.157730 2.000000 -2.000000 0.000000 97.207199 179.421005 -2.891910 42.129299 -0.316242 0.091767 0.072543 -0.074109 -164.431000 -2.000000 2.000000 0.000000 88.164200 -0.275033 -158.360001 -66.895103 0.268499 0.125757 1.750160 -0.412202 -152.972000 -13.465191 -6.123645 -2.195050 17.641779 2.246300 1.602193 -8.526219 8.241168 2.350298 -8.794676 -2.111662 16.503435 24.510670 -3.443127 -1.697996 -12.274266 -4.051600 -0.510297 
38.264423 47.128078 -21.720104 1.506620 3.436310 -12.604600 -20.204000 0.181674 0.567920 20.673901 2.509760 0.288762 12.755100 2.065320 -6.402970 11.372100 5.360460 -2.920320 2.000000 -2.000000 0.000000 96.601700 179.324005 -3.009320 41.699600 -0.316927 0.091004 0.070863 -0.070791 -163.102997 -2.000000 2.000000 0.000000 88.046402 0.270242 -157.636002 -66.445801 0.269484 0.125332 1.753800 -0.420030 -152.748001 -14.033518 -5.447272 -2.319042 18.431318 2.319063 1.636657 -9.002456 8.652316 2.497510 -8.663083 -1.476706 15.771468 23.799660 -3.374130 -1.681587 -11.243088 -4.616070 -0.544902 
